<?xml version="1.0" encoding="UTF-8" standalone="no"?>
<!-- Created with Inkscape (http://www.inkscape.org/) -->

<svg
   xmlns:dc="http://purl.org/dc/elements/1.1/"
   xmlns:cc="http://creativecommons.org/ns#"
   xmlns:rdf="http://www.w3.org/1999/02/22-rdf-syntax-ns#"
   xmlns:svg="http://www.w3.org/2000/svg"
   xmlns="http://www.w3.org/2000/svg"
   xmlns:sodipodi="http://sodipodi.sourceforge.net/DTD/sodipodi-0.dtd"
   xmlns:inkscape="http://www.inkscape.org/namespaces/inkscape"
   version="1.1"
   id="svg2"
   width="117.75792"
   height="117.13404"
   viewBox="0 0 117.75792 117.13404"
   sodipodi:docname="logo-yellow-margin.svg"
   inkscape:version="0.92+devel unknown"
   inkscape:export-filename="logo-yellow-margin.png"
   inkscape:export-xdpi="1231"
   inkscape:export-ydpi="1231">
  <metadata
     id="metadata8">
    <rdf:RDF>
      <cc:Work
         rdf:about="">
        <dc:format>image/svg+xml</dc:format>
        <dc:type
           rdf:resource="http://purl.org/dc/dcmitype/StillImage" />
        <dc:title></dc:title>
      </cc:Work>
    </rdf:RDF>
  </metadata>
  <defs
     id="defs6" />
  <sodipodi:namedview
     pagecolor="#ffffff"
     bordercolor="#666666"
     inkscape:document-rotation="0"
     borderopacity="1"
     objecttolerance="10"
     gridtolerance="10"
     guidetolerance="10"
     inkscape:pageopacity="0"
     inkscape:pageshadow="2"
     inkscape:window-width="1848"
     inkscape:window-height="1056"
     id="namedview4"
     showgrid="false"
     inkscape:zoom="7.4375725"
     inkscape:cx="46.643785"
     inkscape:cy="58.56702"
     inkscape:window-x="72"
     inkscape:window-y="0"
     inkscape:window-maximized="1"
     inkscape:current-layer="g10" />
  <g
     inkscape:groupmode="layer"
     inkscape:label="Image"
     id="g10">
    <path
       sodipodi:type="inkscape:offset"
       inkscape:radius="-0.81976324"
       inkscape:original="M 91.087891 29.634766 L 91.087891 37.179688 C 91.087891 43.398788 91.06541 44.902233 90.96875 45.728516 C 90.695396 48.065381 90.139747 50.054633 89.212891 52 C 87.29442 56.026662 84.013234 58.687617 79.679688 59.736328 C 77.567442 60.247491 78.792676 60.211832 61.296875 60.289062 C 43.878726 60.365953 44.392334 60.351332 42.330078 60.826172 C 39.256115 61.533961 36.584749 62.887496 34.720703 64.681641 C 32.652742 66.672055 31.522919 68.748024 30.855469 71.785156 C 30.500127 73.402073 30.495581 73.600135 30.488281 88.904297 C 30.481453 103.25295 30.482038 103.37628 30.642578 104.16406 C 31.1617 106.71143 32.555114 108.9941 34.730469 110.86523 C 37.24449 113.02765 40.434101 114.53291 44.794922 115.61328 C 48.125795 116.43848 51.200681 116.83677 56.1875 117.08789 C 57.493635 117.15366 63.780718 117.0537 65.273438 116.94336 C 70.638436 116.54679 74.513711 115.80851 78.0625 114.50781 C 83.186779 112.62965 86.441249 109.5778 87.195312 105.94336 C 87.329479 105.29672 87.341017 104.80636 87.341797 99.705078 C 87.342257 96.659749 87.321139 93.403603 87.292969 92.470703 L 87.240234 90.775391 L 73.021484 90.775391 L 58.800781 90.775391 L 58.800781 88.748047 L 58.800781 86.722656 L 80.072266 86.697266 C 103.4459 86.669144 101.41837 86.710543 103.33789 86.214844 C 107.96064 85.021075 111.75418 81.794498 114.20703 76.970703 C 116.70565 72.056924 117.88307 65.525795 117.73047 57.435547 C 117.66532 53.982285 117.45904 51.447064 117.01562 48.6875 C 115.4366 38.860527 111.13062 32.390496 104.75195 30.257812 C 102.93664 29.65087 102.71708 29.634766 96.539062 29.634766 L 91.087891 29.634766 z M 73.810547 97.988281 C 74.402253 97.838557 75.618742 97.840026 76.255859 97.990234 C 78.137576 98.433854 79.667435 100.04763 80.058594 102.00195 C 80.593348 104.67366 78.797008 107.41736 76.152344 107.9707 C 75.645881 108.0767 74.618732 108.1085 74.164062 108.0332 C 73.680607 107.9531 72.910682 107.66105 72.412109 107.36719 C 71.575625 106.87417 70.879452 106.11839 70.466797 105.25586 C 70.032226 104.34753 69.919881 103.86771 69.925781 102.94141 C 69.934696 101.53679 70.431486 100.354 71.435547 99.345703 C 72.082161 98.696366 72.929631 98.21146 73.810547 97.988281 z "
       style="fill:#fed141;stroke-width:0.07798538"
       id="path4271"
       d="m 91.908203,30.455078 v 6.72461 c 0,6.221075 -0.01671,7.718839 -0.125,8.644531 -0.28201,2.410869 -0.864607,4.502881 -1.830078,6.529297 -2.014262,4.227717 -5.530358,7.078662 -10.080078,8.179687 -1.025139,0.248084 -1.41855,0.395443 -3.591797,0.460938 -2.173247,0.06549 -6.233041,0.07662 -14.980469,0.115234 -8.709268,0.03845 -12.94064,0.05453 -15.222656,0.119141 -2.282016,0.06461 -2.520617,0.156138 -3.564453,0.396484 -2.952467,0.679814 -5.494082,1.980851 -7.22461,3.646484 -1.970256,1.896374 -2.99018,3.765252 -3.632812,6.689454 -0.176322,0.80232 -0.24889,1.125122 -0.294922,3.269531 -0.04603,2.144408 -0.04908,6.021826 -0.05273,13.673828 -0.0034,7.174314 -0.0056,10.79494 0.01367,12.707033 0.01925,1.91209 0.04441,2.00279 0.123046,2.38867 0.480943,2.36002 1.763638,4.47509 3.820313,6.24414 2.396727,2.06153 5.447694,3.51415 9.726563,4.57422 3.276331,0.81169 6.276087,1.20139 11.236328,1.45117 1.132506,0.057 7.624117,-0.044 8.984375,-0.14453 5.319347,-0.3932 9.106514,-1.11789 12.568359,-2.38672 4.96017,-1.81801 7.934034,-4.69651 8.611328,-7.96094 0.119319,-0.57507 0.128127,-0.97221 0.128906,-6.072262 4.6e-4,-3.041451 -0.02202,-6.321251 -0.04883,-7.208984 l -0.02734,-0.900391 H 73.021484 58.800781 a 0.81984522,0.81984522 0 0 1 -0.820312,-0.820312 v -2.027344 -2.025391 a 0.81984522,0.81984522 0 0 1 0.818359,-0.820312 l 21.271484,-0.02539 c 11.687273,-0.01406 17.030829,-0.0098 19.66211,-0.06445 2.631278,-0.05464 2.378328,-0.126685 3.400388,-0.390625 4.38163,-1.131503 7.97874,-4.171218 10.34375,-8.822266 2.41276,-4.744924 3.58454,-11.146001 3.4336,-19.148437 -0.0647,-3.428199 -0.26587,-5.911579 -0.70313,-8.632813 -1.55093,-9.652135 -5.70382,-15.77344 -11.71484,-17.783203 -0.9003,-0.301011 -1.27963,-0.424673 -2.27344,-0.5 -0.99381,-0.07533 -2.591391,-0.08008 -5.679688,-0.08008 z M 76.443359,97.191406 c 2.217296,0.522734 3.96508,2.377893 4.419922,4.650394 0.62529,3.12404 -1.439455,6.28229 -4.542969,6.93164 -0.691812,0.14479 -1.603304,0.18225 -2.291015,0.0684 -0.661993,-0.10968 -1.421271,-0.40691 -2.033203,-0.76758 -0.980794,-0.57808 -1.782424,-1.44669 -2.269532,-2.46484 -0.459338,-0.9601 -0.627427,-1.67945 -0.621093,-2.67383 0.01012,-1.59498 0.615159,-3.028344 1.75,-4.167972 0.755332,-0.758513 1.720296,-1.312355 2.753906,-1.574219 0.851975,-0.215582 1.971189,-0.205367 2.833984,-0.002 z" />
  </g>
</svg>
