<?xml version="1.0" encoding="UTF-8" standalone="no"?>
<!-- Created with Inkscape (http://www.inkscape.org/) -->

<svg
   xmlns:dc="http://purl.org/dc/elements/1.1/"
   xmlns:cc="http://creativecommons.org/ns#"
   xmlns:rdf="http://www.w3.org/1999/02/22-rdf-syntax-ns#"
   xmlns:svg="http://www.w3.org/2000/svg"
   xmlns="http://www.w3.org/2000/svg"
   xmlns:sodipodi="http://sodipodi.sourceforge.net/DTD/sodipodi-0.dtd"
   xmlns:inkscape="http://www.inkscape.org/namespaces/inkscape"
   version="1.1"
   id="svg2"
   width="117.75792"
   height="117.13404"
   viewBox="0 0 117.75792 117.13404"
   sodipodi:docname="logo-blue-margin.svg"
   inkscape:version="0.92+devel unknown"
   inkscape:export-filename="logo-blue-margin.png"
   inkscape:export-xdpi="1231"
   inkscape:export-ydpi="1231">
  <metadata
     id="metadata8">
    <rdf:RDF>
      <cc:Work
         rdf:about="">
        <dc:format>image/svg+xml</dc:format>
        <dc:type
           rdf:resource="http://purl.org/dc/dcmitype/StillImage" />
        <dc:title></dc:title>
      </cc:Work>
    </rdf:RDF>
  </metadata>
  <defs
     id="defs6" />
  <sodipodi:namedview
     pagecolor="#ffffff"
     bordercolor="#666666"
     inkscape:document-rotation="0"
     borderopacity="1"
     objecttolerance="10"
     gridtolerance="10"
     guidetolerance="10"
     inkscape:pageopacity="0"
     inkscape:pageshadow="2"
     inkscape:window-width="1848"
     inkscape:window-height="1056"
     id="namedview4"
     showgrid="false"
     inkscape:zoom="7.4375725"
     inkscape:cx="46.643785"
     inkscape:cy="58.56702"
     inkscape:window-x="72"
     inkscape:window-y="0"
     inkscape:window-maximized="1"
     inkscape:current-layer="g10" />
  <g
     inkscape:groupmode="layer"
     inkscape:label="Image"
     id="g10">
    <path
       sodipodi:type="inkscape:offset"
       inkscape:radius="-1.1112987"
       inkscape:original="M 59.697266 0.025390625 C 49.224478 -0.14933767 40.898885 1.3895275 35.929688 4.4160156 C 32.957239 6.2263839 31.108361 8.5604805 30.5625 11.191406 C 30.429653 11.831711 30.416952 12.310222 30.416016 16.65625 C 30.415446 19.276388 30.438427 22.532534 30.466797 23.890625 L 30.517578 26.359375 L 44.736328 26.359375 L 58.957031 26.359375 L 58.957031 28.386719 L 58.957031 30.414062 L 38.097656 30.414062 C 15.149705 30.414063 16.555537 30.385763 14.544922 30.890625 C 9.7705595 32.089457 5.9402196 35.368496 3.4414062 40.396484 C 1.6394894 44.022211 0.62978636 48.188669 0.14257812 54.003906 C 0.013581805 55.543585 0.013269575 61.466582 0.14257812 63.167969 C 0.72853662 70.877764 2.2914182 76.363904 5.1074219 80.597656 C 7.659114 84.434022 11.408404 86.927638 15.402344 87.445312 C 15.53102 87.461992 18.119691 87.481881 21.154297 87.488281 L 26.671875 87.5 L 26.671875 79.953125 C 26.671875 71.781374 26.683002 71.478522 27.107422 69.410156 C 27.498174 67.505856 28.397725 65.176272 29.320312 63.675781 C 31.283779 60.48241 34.268014 58.338928 38.056641 57.404297 C 40.251281 56.862888 38.900332 56.903652 56.65625 56.851562 C 72.611712 56.804758 72.728228 56.803294 73.751953 56.636719 C 81.824792 55.323144 86.490191 50.751565 87.181641 43.476562 C 87.234681 42.918602 87.265031 37.575291 87.269531 28.191406 C 87.27637 13.875428 87.276079 13.75912 87.115234 12.970703 C 86.825908 11.55254 86.319382 10.323426 85.515625 9.0859375 C 82.40946 4.3036076 75.723106 1.3148646 65.976562 0.35351562 C 63.807268 0.13954751 62.54813 0.072954505 59.697266 0.025390625 z M 42.998047 9.0644531 C 44.346507 9.1277975 45.38501 9.5932156 46.365234 10.574219 C 47.344415 11.554176 47.828125 12.739832 47.828125 14.154297 C 47.828125 15.590367 47.341597 16.763484 46.322266 17.787109 C 45.675652 18.436448 44.828182 18.921359 43.947266 19.144531 C 43.369992 19.290798 42.078719 19.288895 41.466797 19.140625 C 39.629401 18.695418 38.060927 17.041937 37.703125 15.171875 C 37.369668 13.429054 37.864235 11.809689 39.107422 10.5625 C 40.194955 9.4714669 41.441167 8.9913171 42.998047 9.0644531 z "
       style="fill:#3571a3;stroke-width:0.07798538"
       id="path4271"
       d="M 59.679688,1.1367188 C 49.325539,0.96396983 41.148971,2.5385383 36.507812,5.3652344 33.72294,7.0613595 32.121408,9.1477723 31.650391,11.417969 c -0.113337,0.546267 -0.122112,0.894401 -0.123047,5.238281 -5.69e-4,2.61344 0.02292,5.8774 0.05078,7.210938 l 0.02734,1.380859 h 13.130859 14.220703 a 1.1114098,1.1114098 0 0 1 1.111328,1.111328 v 2.027344 2.027343 a 1.1114098,1.1114098 0 0 1 -1.111328,1.111329 H 38.097656 c -11.474432,0 -16.868152,-0.0066 -19.605468,0.04883 -2.737317,0.0554 -2.615894,0.128395 -3.675782,0.394531 C 10.370114,33.085204 6.8205809,36.095508 4.4375,40.890625 2.7129551,44.360668 1.7302304,48.365706 1.25,54.097656 c -0.1092123,1.30354 -0.1145285,7.479411 0,8.986328 0.5776614,7.600626 2.1073625,12.875416 4.7832031,16.898438 2.3966709,3.603298 5.8810019,5.890733 9.5117189,6.361328 -0.205499,-0.02664 -0.03927,-0.0059 0.04297,-0.0039 0.08223,0.002 0.203496,0.0057 0.355468,0.0078 0.303944,0.0043 0.734047,0.0078 1.253907,0.01172 1.039719,0.0078 2.443442,0.01438 3.958984,0.01758 l 4.404297,0.0098 v -6.433594 c 0,-4.08638 0.0028,-6.203696 0.06055,-7.605469 0.05773,-1.401772 0.184465,-2.117384 0.398437,-3.160156 0.422385,-2.058459 1.330939,-4.430636 2.353516,-6.09375 2.1104,-3.432343 5.377484,-5.770815 9.417969,-6.767578 1.052134,-0.259558 1.50038,-0.42698 3.697265,-0.492188 2.196885,-0.06521 6.286871,-0.06771 15.164063,-0.09375 7.977705,-0.0234 11.99842,-0.03563 14.136718,-0.0625 2.138299,-0.02687 2.279381,-0.05637 2.785157,-0.138672 3.868205,-0.629416 6.817765,-2.017434 8.882812,-4.041015 2.065048,-2.023581 3.293617,-4.701996 3.619141,-8.126953 -0.0016,0.01692 0.019,-0.494509 0.0293,-1.214844 0.01029,-0.720335 0.01996,-1.732032 0.02734,-3.019531 0.01476,-2.574999 0.02314,-6.254467 0.02539,-10.945313 0.0034,-7.15798 0.0055,-10.769433 -0.01367,-12.671875 -0.01918,-1.902442 -0.04083,-1.942321 -0.11914,-2.326172 -0.263684,-1.292474 -0.704572,-2.3675 -1.441407,-3.5019528 C 81.759429,5.3426501 75.439232,2.4031216 65.867188,1.4589844 63.717282,1.2469287 62.51871,1.1840851 59.679688,1.1367188 Z M 43.050781,7.9550781 c 1.57661,0.074062 2.966208,0.6996815 4.09961,1.8339844 1.166629,1.1675535 1.789062,2.6974125 1.789062,4.3652345 0,1.687069 -0.63595,3.216857 -1.830078,4.416015 -0.793994,0.797341 -1.800748,1.376729 -2.888672,1.652344 -0.961976,0.243741 -2.058079,0.230062 -3.015625,-0.002 -2.30875,-0.559418 -4.146021,-2.499774 -4.59375,-4.839844 -0.395447,-2.066816 0.230282,-4.120052 1.708984,-5.6035152 1.272115,-1.2762084 2.91809,-1.907404 4.730469,-1.8222657 z" />
  </g>
</svg>
