<?xml version="1.0" encoding="UTF-8" standalone="no"?>
<svg
   xmlns:dc="http://purl.org/dc/elements/1.1/"
   xmlns:cc="http://creativecommons.org/ns#"
   xmlns:rdf="http://www.w3.org/1999/02/22-rdf-syntax-ns#"
   xmlns:svg="http://www.w3.org/2000/svg"
   xmlns="http://www.w3.org/2000/svg"
   xmlns:sodipodi="http://sodipodi.sourceforge.net/DTD/sodipodi-0.dtd"
   xmlns:inkscape="http://www.inkscape.org/namespaces/inkscape"
   version="1.0"
   width="10570pt"
   height="10514pt"
   viewBox="0 0 10570 10514"
   preserveAspectRatio="xMidYMid meet"
   id="svg29820"
   sodipodi:docname="logo.svg"
   inkscape:version="0.92+devel unknown">
  <defs
     id="defs29824" />
  <sodipodi:namedview
     pagecolor="#ffffff"
     bordercolor="#666666"
     inkscape:document-rotation="0"
     borderopacity="1"
     objecttolerance="10"
     gridtolerance="10"
     guidetolerance="10"
     inkscape:pageopacity="0"
     inkscape:pageshadow="2"
     inkscape:window-width="1848"
     inkscape:window-height="1056"
     id="namedview29822"
     showgrid="false"
     units="pt"
     inkscape:zoom="0.087886592"
     inkscape:cx="5225.091"
     inkscape:cy="6506.2537"
     inkscape:window-x="72"
     inkscape:window-y="0"
     inkscape:window-maximized="1"
     inkscape:current-layer="svg29820" />
  <metadata
     id="metadata2">
Created by potrace 1.15, written by Peter Selinger 2001-2017
<rdf:RDF>
  <cc:Work
     rdf:about="">
    <dc:format>image/svg+xml</dc:format>
    <dc:type
       rdf:resource="http://purl.org/dc/dcmitype/StillImage" />
    <dc:title></dc:title>
  </cc:Work>
</rdf:RDF>
</metadata>
  <path
     inkscape:connector-curvature="0"
     id="path34120"
     d="m 5043.5,10509.816 c -447.619,-22.541 -723.7701,-58.275 -1022.7507,-132.345 -391.4291,-96.975 -677.7157,-232.013 -903.3753,-426.1128 -195.2607,-167.9531 -320.2166,-372.86 -366.8132,-601.5136 -14.4101,-70.7112 -14.5235,-81.8783 -13.9107,-1369.8189 0.6538,-1373.7081 1.0326,-1391.3908 32.928,-1536.5261 59.9105,-272.6142 161.3199,-458.9995 346.941,-637.6599 167.3175,-161.0431 407.0979,-282.5323 683.018,-346.0637 185.109,-42.6219 139.0026,-41.3161 1702.4629,-48.2178 1570.4304,-6.9324 1460.5321,-3.6347 1650.1282,-49.5167 388.9809,-94.1327 683.3694,-333.1163 855.5722,-694.5513 83.195,-174.6169 133.2366,-353.1605 157.773,-562.9185 8.6758,-74.1675 10.5266,-209.0503 10.5266,-767.2794 v -677.293 h 489.3042 c 554.5414,0 574.4102,1.5086 737.3534,55.9882 572.5524,191.4306 958.9304,772.1201 1100.6634,1654.1934 39.801,247.6997 58.436,475.3524 64.283,785.3186 13.697,726.1841 -92.053,1312.3616 -316.329,1753.4244 -220.17,432.9859 -560.7039,722.5983 -975.6436,829.7516 -172.2973,44.4941 9.646,40.726 -2088.3814,43.2502 L 5278,7784.2224 v 181.8887 181.8887 h 1276.3852 1276.3853 l 4.5976,152.25 c 2.5284,83.7375 4.564,375.9 4.5227,649.2501 -0.07,457.8931 -1.1032,501.9574 -13.146,560 -67.6851,326.2288 -359.7874,600.1561 -819.7448,768.7411 -318.5408,116.751 -666.4354,182.994 -1148,218.59 -133.9871,9.904 -698.2609,18.889 -815.5,12.985 z m 1792,-818.3119 c 237.3861,-49.6685 398.5135,-295.9551 350.5138,-535.7688 -35.1106,-175.42 -172.4282,-320.2927 -341.3318,-360.1122 -57.1879,-13.4827 -166.3496,-13.5093 -219.4613,-0.07 -79.0714,20.0326 -155.1446,63.4844 -213.185,121.7692 -90.1249,90.5051 -134.6574,196.5817 -135.4576,322.6615 -0.5278,83.1453 9.5688,126.3535 48.576,207.886 37.0401,77.4207 99.4523,145.1499 174.5354,189.4032 44.7521,26.3767 113.9153,52.7149 157.3105,59.9046 40.8114,6.762 133.0396,3.8227 178.5,-5.6896 z"
     style="fill:#fed141;stroke-width:7.00000048" />
  <path
     inkscape:connector-curvature="0"
     id="path34118"
     d="M 1382.5,7849.1803 C 1024.0023,7802.7136 687.46327,7578.8535 458.42232,7234.4997 205.65665,6854.4764 65.390907,6362.034 12.795028,5669.9996 1.1882385,5517.2823 1.137027,4985.7017 12.71579,4847.4995 56.447804,4325.5213 147.14879,3951.4462 308.8896,3625.9994 533.18413,3174.685 876.95125,2880.3739 1305.5,2772.7661 c 180.4737,-45.3166 54.423,-42.7668 2114.2407,-42.7668 H 5292 v -182 -182.0001 H 4015.6306 2739.2611 l -4.6305,-221.6415 c -2.5468,-121.9029 -4.5892,-414.0654 -4.5386,-649.2501 0.084,-390.1014 1.2384,-433.1344 13.1631,-490.6085 48.9967,-236.15298 214.9701,-445.66753 481.7783,-608.16696 C 3671.0707,124.67329 4418.4582,-13.351027 5358.5,2.3326583 5614.3947,6.6020128 5727.2832,12.483095 5922,31.688963 6796.8537,117.98005 7397.131,386.23514 7675.9417,815.4991 c 72.1455,111.07748 117.5489,221.3862 143.5189,348.6812 14.4375,70.7686 14.5453,81.3108 13.9314,1366.319 -0.406,842.3015 -3.1766,1321.9173 -7.9373,1372.0001 -62.0648,653.0073 -480.8125,1063.359 -1205.4339,1181.266 -91.89,14.9519 -102.3518,15.0833 -1534.5208,19.2845 -1593.7785,4.6752 -1472.5082,1.0676 -1669.5,49.6643 -340.0687,83.8929 -607.9618,276.147 -784.2033,562.7854 -82.8119,134.6847 -163.4966,343.8572 -198.5707,514.7879 C 2395.1299,6415.9449 2394,6443.2072 2394,7176.707 v 677.2928 l -495.25,-1.0486 c -272.3875,-0.574 -504.7,-2.2736 -516.25,-3.7709 z M 3944.7793,1718.4296 c 79.0714,-20.032 155.1446,-63.4843 213.185,-121.7693 91.4955,-91.881 135.1656,-197.2589 135.1656,-326.1612 0,-126.963 -43.5571,-233.4745 -131.4487,-321.43593 -87.9853,-88.05524 -181.0879,-129.80906 -302.1262,-135.49488 -139.7462,-6.56474 -251.7192,36.53643 -349.3366,134.46805 -111.589,111.94816 -155.8154,257.30696 -125.8842,413.74326 32.1165,167.8575 172.8695,316.3093 337.7949,356.2712 54.9264,13.3089 170.8338,13.506 222.6502,0.3787 z"
     style="fill:#3571a3;stroke-width:7.00000048" />
</svg>
